Coordinates
version=1
nRows=10
nColumns=22
inDegrees=yes

Units are S.I. units (second, meters, Newtons, ...)
If the header above contains a line with 'inDegrees', this indicates whether rotational values are in degrees (yes) or radians (no).

endheader
time	pelvis_tilt	pelvis_list	pelvis_rotation	pelvis_tx	pelvis_ty	pelvis_tz	hip_flexion_r	hip_adduction_r	hip_rotation_r	knee_angle_r	ankle_angle_r	subtalar_angle_r	hip_flexion_l	hip_adduction_l	hip_rotation_l	knee_angle_l	ankle_angle_l	subtalar_angle_l	lumbar_extension	lumbar_bending	lumbar_rotation
      2.48000000	      7.31235045	      3.04210701	    -35.31772674	     -0.06995631	      0.89527934	      0.05479176	      9.40044833	     -8.28519469	      5.09391685	    -64.75163233	      8.70392312	     -5.26531472	      9.63563482	      7.17103452	    -19.35700551	    -23.60888281	     12.35849377	     -8.31474467	     -9.44983759	     -8.38556305	      8.61589582
      2.49000000	      7.25103455	      2.77878635	    -34.97504185	     -0.06160753	      0.89690348	      0.05762648	     10.63625705	     -8.11580660	      4.61256790	    -64.73891126	      9.49127253	     -6.13788810	      8.58578545	      7.19427668	    -19.01028310	    -23.03309607	     12.61764692	     -8.21662690	     -9.68187179	     -7.99465816	      8.05707786
      2.50000000	      7.18891866	      2.51004264	    -34.58509463	     -0.05322094	      0.89843106	      0.06045581	     11.77724804	     -7.96430452	      4.03975767	    -64.44551958	     10.34052773	     -7.12736279	      7.53256245	      7.18909013	    -18.67565010	    -22.46470378	     12.88954486	     -8.08173279	     -9.89859562	     -7.59632421	      7.49449760
      2.51000000	      7.13259291	      2.25059876	    -34.12220569	     -0.04475532	      0.89983753	      0.06320594	     12.82393138	     -7.86784596	      3.34312954	    -63.89323090	     11.17397111	     -7.99788139	      6.47564406	      7.18491438	    -18.30031541	    -21.88903622	     13.14756810	     -7.91814274	    -10.10511600	     -7.19824789	      6.88794965
      2.52000000	      7.08895038	      2.00088315	    -33.60962697	     -0.03622346	      0.90110167	      0.06591713	     13.77543242	     -7.82996175	      2.53939602	    -63.10007823	     12.00038946	     -8.84375771	      5.40832871	      7.18000583	    -17.90355566	    -21.30686614	     13.39455835	     -7.72381864	    -10.30445581	     -6.81186103	      6.28584801
      2.53000000	      7.06313672	      1.77231372	    -33.06393080	     -0.02767705	      0.90218859	      0.06860603	     14.64463281	     -7.83949426	      1.68464663	    -62.09419553	     12.81306312	     -9.68253379	      4.34171401	      7.18112312	    -17.50149706	    -20.73014009	     13.65026298	     -7.49831904	    -10.50280492	     -6.45334497	      5.65660409
      2.54000000	      7.04755651	      1.55988859	    -32.49844856	     -0.01911946	      0.90308913	      0.07130598	     15.43527978	     -7.88608607	      0.77992775	    -60.88602235	     13.57272934	    -10.46795281	      3.28267511	      7.17925999	    -17.08575371	    -20.16627488	     13.90654758	     -7.25288233	    -10.69136312	     -6.11825135	      5.04183069
      2.55000000	      7.04428870	      1.36457664	    -31.92359839	     -0.01058816	      0.90378817	      0.07403282	     16.15185781	     -7.96075794	     -0.15480682	    -59.49338509	     14.27516221	    -11.19285083	      2.24428189	      7.16918226	    -16.67811410	    -19.64065563	     14.17714897	     -6.99036234	    -10.87808761	     -5.81218436	      4.44355328
      2.56000000	      7.04877931	      1.18436529	    -31.35083541	     -0.00210829	      0.90428451	      0.07681384	     16.79781936	     -8.04462865	     -1.09740920	    -57.92423754	     14.89051319	    -11.81518127	      1.23642517	      7.14560852	    -16.28107133	    -19.16478205	     14.46297754	     -6.72354003	    -11.06094997	     -5.53483961	      3.87555219
      2.57000000	      7.04396544	      1.02524933	    -30.77013726	      0.00631624	      0.90455319	      0.07962153	     17.39406675	     -8.13988336	     -2.06712891	    -56.19458013	     15.36923412	    -12.16976340	      0.29148998	      7.10756169	    -15.86230276	    -18.76086063	     14.77718005	     -6.50133336	    -11.22369581	     -5.27769468	      3.31685890
